<?xml version="1.0" standalone="no"?><!DOCTYPE svg PUBLIC "-//W3C//DTD SVG 1.1//EN" "http://www.w3.org/Graphics/SVG/1.1/DTD/svg11.dtd"><svg t="1616057926676" class="icon" viewBox="0 0 1024 1024" version="1.1" xmlns="http://www.w3.org/2000/svg" p-id="1233" width="64" height="64" xmlns:xlink="http://www.w3.org/1999/xlink"><defs><style type="text/css"></style></defs><path d="M0 455.111111h796.444444v568.888889H0z m796.444444 170.666667h56.888889v227.555555h-56.888889z m56.888889 0.341333L1024 512v455.111111l-170.666667-114.005333zM170.666667 455.111111a170.666667 170.666667 0 1 1 170.666666-170.666667 170.666667 170.666667 0 0 1-170.666666 170.666667z m398.222222 0a227.555556 227.555556 0 1 1 227.555555-227.555555 227.555556 227.555556 0 0 1-227.555555 227.555555z m-398.222222-113.777778a56.888889 56.888889 0 1 0-56.888889-56.888889 56.888889 56.888889 0 0 0 56.888889 56.888889z m398.222222-28.444444a85.333333 85.333333 0 1 0-85.333333-85.333333 85.333333 85.333333 0 0 0 85.333333 85.333333z m0 0" fill="#ffffff" p-id="1234"></path></svg>